<?xml version="1.0" encoding="UTF-8"?>
<!-- Generated by Pixelmator Pro 3.8 -->
<svg width="1944" height="1690" viewBox="0 0 1944 1690" xmlns="http://www.w3.org/2000/svg">
    <path id="Shape" fill="#666666" fill-rule="evenodd" stroke="none" d="M 971 1690 C 229 1690 192 1690 181 1688 C 175 1687 166 1685 161 1684 C 156 1682 148 1679 144 1677 C 139 1674 130 1669 125 1666 C 120 1662 111 1655 106 1651 C 101 1646 95 1639 93 1635 C 90 1631 86 1625 83 1621 C 81 1617 77 1609 75 1604 C 73 1598 70 1589 69 1583 C 67 1574 66 1570 66 1553 C 66 1539 67 1530 68 1522 C 69 1516 72 1502 75 1492 C 78 1481 82 1463 85 1452 C 88 1441 94 1419 98 1404 C 102 1389 108 1367 111 1356 C 114 1344 119 1323 123 1308 C 127 1294 132 1272 136 1260 C 139 1247 145 1225 149 1212 C 152 1199 158 1176 163 1161 C 167 1146 171 1130 172 1124 C 173 1115 174 1107 174 1066 C 174 1037 173 1017 172 1016 C 172 1014 170 1012 169 1011 C 166 1009 165 1008 141 1008 C 116 1008 115 1009 112 1011 C 111 1012 109 1014 108 1016 C 107 1019 107 1031 107 1060 C 107 1094 107 1102 105 1107 C 105 1111 103 1115 102 1117 C 101 1119 98 1122 96 1124 C 94 1126 90 1129 88 1131 C 85 1132 80 1134 77 1134 C 73 1135 66 1136 58 1136 C 50 1136 42 1135 36 1134 C 31 1133 25 1131 22 1130 C 19 1128 15 1125 12 1122 C 10 1120 6 1115 5 1113 C 4 1110 3 1105 2 1101 C 1 1097 1 1057 1 982 C 1 900 1 867 2 862 C 3 858 5 852 6 849 C 8 845 11 841 15 838 C 18 835 22 832 26 831 C 29 830 34 828 38 828 C 42 827 51 827 62 827 C 76 828 79 828 84 830 C 88 831 92 834 96 838 C 100 842 102 845 104 850 C 106 855 106 856 107 898 C 107 939 108 940 110 943 C 111 944 113 946 115 946 C 116 947 128 948 141 948 C 161 948 166 947 168 946 C 169 945 171 943 172 941 C 173 939 175 932 175 924 C 176 917 178 908 179 904 C 180 900 183 892 186 887 C 188 882 193 874 196 869 C 199 865 204 858 208 854 C 211 850 217 845 221 842 C 224 839 232 835 238 832 C 245 828 254 825 259 823 C 268 821 268 821 318 820 C 363 820 368 819 370 818 C 372 817 373 814 374 812 C 375 809 375 706 376 420 C 376 162 376 30 377 26 C 378 23 380 19 382 15 C 384 12 388 8 391 6 C 393 4 397 3 399 2 C 401 1 619 1 972 1 C 1542 1 1542 1 1547 3 C 1550 4 1555 7 1557 9 C 1560 11 1563 15 1564 17 C 1565 20 1567 25 1568 29 C 1569 36 1569 78 1570 424 C 1570 727 1570 813 1571 814 C 1572 816 1573 817 1575 818 C 1577 819 1586 820 1620 820 C 1655 820 1666 820 1674 822 C 1680 822 1688 824 1693 826 C 1697 828 1704 830 1707 832 C 1711 834 1718 838 1722 842 C 1727 845 1733 851 1736 854 C 1740 858 1745 864 1748 868 C 1751 873 1755 881 1758 886 C 1761 892 1764 901 1766 907 C 1768 913 1769 923 1770 928 C 1771 934 1772 940 1773 941 C 1773 943 1775 945 1776 946 C 1778 946 1783 948 1788 948 C 1793 949 1804 949 1812 948 C 1820 948 1828 947 1829 947 C 1831 946 1833 945 1834 943 C 1835 941 1836 938 1836 912 C 1836 896 1837 878 1837 870 C 1838 861 1840 852 1841 850 C 1842 846 1844 843 1848 839 C 1851 836 1856 832 1858 831 C 1861 830 1866 828 1870 828 C 1873 827 1884 827 1894 827 C 1910 828 1913 828 1918 830 C 1922 831 1926 834 1929 837 C 1933 840 1936 844 1938 848 C 1940 852 1941 857 1942 860 C 1943 865 1943 899 1944 978 C 1944 1076 1944 1092 1943 1100 C 1942 1106 1940 1112 1939 1115 C 1938 1117 1934 1122 1932 1124 C 1929 1127 1925 1130 1922 1131 C 1920 1132 1915 1134 1910 1135 C 1906 1135 1897 1136 1890 1136 C 1882 1136 1874 1135 1870 1134 C 1866 1134 1860 1132 1856 1130 C 1853 1128 1848 1125 1846 1122 C 1843 1119 1841 1115 1839 1110 C 1837 1102 1837 1102 1836 1060 C 1836 1020 1835 1018 1833 1015 C 1832 1014 1830 1012 1827 1011 C 1825 1010 1816 1010 1801 1009 C 1784 1009 1778 1009 1776 1010 C 1774 1011 1772 1013 1771 1015 C 1770 1017 1770 1027 1770 1065 C 1770 1102 1770 1114 1772 1122 C 1772 1128 1774 1137 1776 1144 C 1777 1150 1782 1166 1786 1179 C 1790 1192 1796 1215 1800 1229 C 1804 1243 1810 1267 1814 1282 C 1818 1296 1824 1318 1827 1330 C 1831 1343 1836 1363 1839 1375 C 1842 1387 1848 1408 1851 1421 C 1854 1434 1860 1454 1863 1465 C 1866 1476 1870 1493 1872 1502 C 1874 1510 1876 1523 1877 1530 C 1878 1537 1879 1546 1879 1553 C 1879 1560 1878 1569 1877 1576 C 1876 1582 1874 1591 1873 1596 C 1871 1600 1868 1608 1865 1614 C 1862 1619 1857 1627 1854 1632 C 1851 1637 1844 1644 1840 1649 C 1835 1653 1828 1659 1824 1662 C 1821 1665 1814 1669 1811 1671 C 1807 1673 1801 1676 1797 1678 C 1793 1680 1786 1682 1782 1683 C 1777 1685 1768 1687 1761 1688 C 1749 1690 1746 1690 971 1690 Z M 988 1631 C 1752 1630 1752 1630 1760 1628 C 1765 1626 1772 1624 1775 1622 C 1779 1620 1785 1617 1788 1614 C 1792 1611 1797 1606 1801 1602 C 1804 1599 1808 1591 1811 1586 C 1814 1580 1817 1572 1818 1568 C 1819 1564 1819 1557 1819 1552 C 1819 1547 1818 1539 1817 1534 C 1816 1530 1812 1514 1809 1500 C 1805 1487 1799 1463 1795 1448 C 1791 1434 1785 1410 1782 1397 C 1779 1384 1773 1362 1769 1349 C 1766 1336 1761 1319 1760 1311 C 1758 1304 1754 1292 1752 1284 C 1750 1276 1747 1264 1745 1257 C 1743 1250 1740 1238 1738 1231 C 1736 1223 1733 1212 1731 1206 C 1729 1199 1726 1187 1724 1180 C 1722 1173 1718 1162 1715 1157 C 1713 1151 1709 1144 1707 1140 C 1705 1137 1700 1131 1697 1128 C 1693 1125 1687 1121 1681 1118 C 1676 1116 1668 1113 1662 1111 C 1652 1109 1652 1109 1479 1108 C 1363 1108 1303 1108 1297 1109 C 1291 1110 1286 1111 1282 1113 C 1277 1115 1274 1118 1268 1124 C 1264 1129 1257 1137 1252 1142 C 1248 1146 1237 1157 1229 1166 C 1220 1174 1210 1184 1205 1188 C 1201 1191 1192 1198 1187 1202 C 1181 1206 1171 1213 1165 1216 C 1159 1220 1147 1226 1138 1231 C 1130 1235 1117 1240 1110 1244 C 1102 1247 1090 1251 1082 1253 C 1075 1255 1063 1258 1057 1259 C 1050 1261 1041 1263 1036 1263 C 1031 1264 1021 1266 1013 1266 C 1004 1267 989 1268 972 1268 C 955 1268 940 1267 932 1267 C 925 1266 915 1264 910 1264 C 906 1263 897 1261 891 1260 C 885 1258 875 1256 869 1254 C 863 1252 853 1249 847 1247 C 841 1245 832 1241 827 1239 C 822 1237 813 1233 808 1230 C 803 1227 794 1223 789 1220 C 784 1217 776 1212 770 1208 C 764 1204 755 1198 750 1194 C 746 1190 737 1183 730 1178 C 724 1172 714 1162 706 1155 C 699 1148 688 1136 682 1129 C 675 1121 670 1115 666 1113 C 663 1111 659 1110 657 1109 C 655 1109 570 1108 468 1108 C 295 1108 282 1109 276 1110 C 272 1111 264 1114 259 1117 C 252 1120 248 1123 244 1127 C 240 1131 237 1136 233 1144 C 230 1150 226 1160 224 1166 C 222 1172 218 1187 215 1198 C 212 1209 206 1229 203 1242 C 200 1255 195 1274 192 1286 C 189 1296 184 1318 180 1333 C 175 1349 169 1373 165 1387 C 161 1402 155 1427 151 1442 C 146 1458 139 1486 135 1503 C 127 1534 127 1534 127 1550 C 127 1558 127 1567 128 1570 C 128 1574 131 1581 134 1586 C 137 1593 140 1597 145 1603 C 149 1607 156 1612 159 1615 C 163 1618 169 1621 173 1623 C 177 1624 184 1627 189 1628 C 194 1629 203 1630 210 1630 C 218 1630 567 1631 988 1631 Z M 972 1495 C 948 1495 928 1494 920 1493 C 913 1493 900 1491 892 1491 C 884 1490 869 1487 859 1485 C 848 1483 833 1480 825 1478 C 817 1476 803 1473 794 1470 C 785 1467 770 1462 761 1459 C 752 1456 739 1451 732 1448 C 724 1445 712 1439 704 1435 C 696 1432 683 1425 676 1421 C 668 1417 654 1409 644 1403 C 635 1397 622 1389 614 1384 C 607 1379 595 1371 587 1365 C 580 1359 569 1350 563 1346 C 558 1341 547 1332 539 1325 C 532 1318 520 1307 514 1300 C 506 1292 502 1286 500 1282 C 497 1277 496 1275 496 1268 C 496 1263 497 1259 498 1256 C 499 1254 502 1251 504 1249 C 506 1247 509 1244 512 1243 C 514 1242 517 1241 523 1241 C 530 1241 532 1241 538 1244 C 542 1247 548 1251 555 1257 C 560 1262 569 1270 574 1275 C 580 1280 589 1288 594 1292 C 599 1296 608 1303 613 1307 C 618 1312 629 1320 636 1325 C 643 1330 655 1338 662 1342 C 668 1346 680 1353 687 1357 C 694 1362 706 1368 713 1372 C 720 1375 733 1381 742 1385 C 750 1389 764 1395 771 1397 C 778 1400 791 1405 800 1408 C 808 1411 822 1415 830 1417 C 838 1419 852 1423 861 1425 C 870 1427 887 1429 900 1431 C 912 1433 925 1434 930 1435 C 935 1435 946 1436 955 1436 C 966 1437 977 1437 990 1436 C 1000 1435 1016 1434 1024 1433 C 1033 1433 1047 1431 1055 1430 C 1063 1429 1077 1426 1086 1424 C 1095 1423 1108 1419 1115 1417 C 1122 1415 1134 1412 1141 1410 C 1148 1407 1160 1403 1168 1400 C 1176 1397 1190 1391 1200 1387 C 1209 1383 1222 1377 1230 1373 C 1237 1369 1248 1363 1255 1359 C 1261 1355 1273 1349 1280 1344 C 1287 1339 1300 1331 1308 1325 C 1317 1319 1331 1308 1340 1300 C 1350 1293 1362 1282 1368 1277 C 1374 1271 1383 1262 1390 1256 C 1398 1248 1402 1244 1406 1242 C 1410 1241 1414 1240 1418 1240 C 1421 1240 1426 1240 1429 1241 C 1432 1242 1437 1245 1439 1247 C 1441 1249 1444 1252 1445 1255 C 1447 1258 1448 1262 1449 1265 C 1449 1268 1449 1271 1447 1276 C 1446 1280 1443 1285 1441 1289 C 1438 1292 1430 1301 1421 1309 C 1413 1317 1401 1328 1394 1334 C 1387 1340 1376 1349 1369 1355 C 1362 1360 1351 1369 1344 1374 C 1337 1379 1326 1386 1320 1390 C 1314 1394 1301 1402 1292 1407 C 1284 1413 1270 1420 1262 1425 C 1253 1429 1241 1435 1234 1438 C 1228 1441 1215 1447 1206 1450 C 1198 1454 1185 1459 1177 1461 C 1170 1464 1157 1468 1148 1470 C 1140 1473 1125 1477 1116 1479 C 1106 1481 1090 1485 1080 1487 C 1069 1488 1055 1490 1048 1491 C 1042 1492 1031 1493 1024 1494 C 1015 1495 1000 1495 972 1495 Z M 977 1209 C 1003 1208 1014 1208 1022 1207 C 1027 1206 1038 1203 1046 1201 C 1055 1199 1067 1196 1073 1194 C 1080 1192 1090 1188 1097 1184 C 1104 1181 1115 1176 1122 1172 C 1129 1168 1139 1162 1144 1158 C 1150 1154 1159 1147 1165 1142 C 1171 1138 1182 1128 1189 1121 C 1196 1114 1207 1103 1212 1096 C 1218 1090 1226 1081 1230 1076 C 1234 1072 1240 1066 1244 1063 C 1248 1060 1256 1057 1261 1055 C 1268 1053 1272 1052 1284 1050 C 1297 1049 1329 1049 1471 1049 C 1580 1049 1646 1049 1652 1050 C 1658 1051 1666 1052 1671 1052 C 1676 1053 1683 1055 1687 1057 C 1691 1058 1697 1059 1699 1060 C 1703 1060 1704 1060 1706 1058 C 1708 1056 1708 1056 1709 1017 C 1709 995 1709 965 1708 950 C 1707 927 1707 923 1705 917 C 1704 914 1701 908 1699 905 C 1697 902 1693 897 1690 894 C 1686 891 1681 888 1677 886 C 1674 884 1668 882 1665 882 C 1661 881 1502 880 972 880 C 402 880 282 881 277 882 C 273 883 267 885 264 887 C 260 889 254 893 251 895 C 249 898 245 903 244 905 C 242 908 240 913 238 917 C 237 920 236 928 235 934 C 234 942 234 962 235 996 C 235 1025 236 1049 236 1051 C 237 1053 238 1056 240 1057 C 242 1058 243 1058 255 1055 C 262 1053 273 1051 280 1051 C 292 1049 320 1049 478 1049 C 653 1049 663 1049 673 1051 C 681 1052 686 1054 692 1057 C 698 1060 703 1063 708 1068 C 712 1071 720 1080 726 1088 C 732 1095 741 1106 746 1111 C 751 1116 759 1125 765 1129 C 770 1134 780 1142 786 1147 C 792 1151 803 1159 810 1163 C 817 1167 828 1173 834 1176 C 840 1179 850 1184 857 1187 C 863 1190 873 1193 880 1195 C 886 1197 897 1201 906 1202 C 914 1204 925 1207 932 1207 C 940 1209 950 1209 977 1209 Z"/>
</svg>
