<?xml version="1.0" encoding="UTF-8"?>
<!-- Generated by Pixelmator Pro 3.8 -->
<svg width="1944" height="1690" viewBox="0 0 1944 1690" xmlns="http://www.w3.org/2000/svg">
    <path id="Shape" fill="#00a2ff" fill-rule="evenodd" stroke="none" d="M 970.888916 1689.898193 C 228.960892 1689.801025 191.972382 1689.712769 181.235947 1688.011597 C 175.04071 1687.030029 166.04071 1685.001465 161.235947 1683.503784 C 156.431168 1682.005981 148.449997 1678.875488 143.5 1676.547119 C 138.550003 1674.21875 130.225006 1669.439453 125 1665.92627 C 119.774994 1662.413208 111.411499 1655.480103 106.414444 1650.519409 C 101.417389 1645.558716 95.178978 1638.574951 92.551308 1635 C 89.923637 1631.425049 85.791794 1625.125 83.369423 1621 C 80.947052 1616.875 77.213615 1609 75.072891 1603.5 C 72.932175 1598 70.127525 1588.790039 68.84034 1583.033325 C 66.823654 1574.014038 66.5 1569.865234 66.5 1553.033325 C 66.5 1538.865356 67.006241 1530.353027 68.34304 1522.043091 C 69.356712 1515.741699 72.363876 1502.016724 75.025627 1491.543091 C 77.687386 1481.069336 82.368027 1463.275024 85.427055 1452 C 88.486092 1440.724976 94.137444 1419.125 97.985619 1404 C 101.833786 1388.875 107.513664 1367.050049 110.607559 1355.5 C 113.701454 1343.949951 119.279434 1322.800049 123.003082 1308.5 C 126.726715 1294.199951 132.496826 1272.150024 135.825546 1259.5 C 139.154282 1246.849976 144.85817 1225.474976 148.50087 1212 C 152.14357 1198.525024 158.462311 1175.563232 162.542542 1160.973633 C 166.622757 1146.384277 170.75737 1129.782959 171.73056 1124.082031 C 173.253525 1115.160645 173.5 1107.073242 173.5 1066.021484 C 173.5 1036.765381 173.113403 1017.239502 172.5 1015.515259 C 171.949997 1013.969238 170.229813 1011.758301 168.677368 1010.602173 C 165.98288 1008.595459 164.703552 1008.5 140.501587 1008.5 C 116.336349 1008.5 115.016136 1008.598083 112.324226 1010.593689 C 110.770905 1011.745178 108.962898 1014.220154 108.306442 1016.093689 C 107.460617 1018.507568 107.096443 1031.403076 107.056442 1060.355713 C 107.009712 1094.180908 106.728691 1102.258301 105.423386 1107.295654 C 104.556244 1110.64209 103.025337 1114.982056 102.02137 1116.939941 C 101.017395 1118.897949 98.464378 1122.2323 96.347984 1124.349609 C 94.23159 1126.466919 90.371124 1129.282593 87.769157 1130.606689 C 85.167191 1131.930908 80.217194 1133.679443 76.769157 1134.492432 C 72.993317 1135.382568 65.52861 1135.971069 58 1135.972168 C 49.687012 1135.973145 42.469521 1135.348267 36.452744 1134.106445 C 31.476749 1133.079468 25.00544 1131.022949 22.07205 1129.536499 C 19.138662 1128.050049 14.645557 1124.733765 12.087374 1122.166992 C 9.52919 1119.600098 6.445823 1115.384033 5.235447 1112.797852 C 4.02507 1110.21167 2.549362 1105.036621 1.956095 1101.297852 C 1.231191 1096.729492 0.876122 1057.440186 0.873447 981.5 C 0.870583 900.194153 1.195441 866.597168 2.031675 861.715698 C 2.670891 857.984375 4.523376 852.270874 6.14831 849.019104 C 7.916723 845.480225 11.291351 841.106506 14.554708 838.124023 C 17.818001 835.141541 22.247408 832.302856 25.588299 831.052856 C 28.658184 829.904236 34.169182 828.462708 37.834957 827.849426 C 41.798798 827.186279 51.38974 826.916992 61.5 827.184998 C 76.160934 827.573669 79.301834 827.949768 84.327637 829.918701 C 88.260185 831.459351 92.029266 834.038818 95.918068 837.850891 C 100.001144 841.853394 102.375183 845.24884 104.062965 849.5 C 106.405342 855.399963 106.453857 856.203308 106.972534 897.67865 C 107.483704 938.553894 107.564957 939.944458 109.60215 942.67865 C 110.758331 944.230408 112.97036 945.950012 114.517776 946.5 C 116.09346 947.060059 127.821884 947.5 141.176178 947.5 C 160.597076 947.5 165.529343 947.219116 167.760544 945.985962 C 169.267242 945.153198 171.251038 942.903198 172.168991 940.985962 C 173.086929 939.068665 174.564804 931.650024 175.453156 924.5 C 176.341507 917.349976 177.980194 908.125 179.094681 904 C 180.209167 899.875 183.121735 892.271057 185.567032 887.102356 C 188.012329 881.933655 192.550385 873.93042 195.651596 869.317383 C 198.752808 864.704346 204.179077 857.809753 207.709976 853.996094 C 211.24086 850.182373 217.138077 844.791565 220.814896 842.016418 C 224.491699 839.241272 232.449997 834.510071 238.5 831.502563 C 244.550003 828.495056 253.774994 824.821167 259 823.338318 C 268.5 820.642212 268.5 820.642212 318.046112 820.071106 C 362.854736 819.554626 367.846039 819.333557 370.24649 817.75946 C 371.729462 816.786987 373.403076 814.359924 374.039001 812.25946 C 374.878113 809.487976 375.298645 706.406189 375.639252 420 C 375.945526 162.430298 376.444305 29.734497 377.119171 26.261353 C 377.731964 23.107666 379.716003 18.658203 382.104065 15.082031 C 384.367462 11.692627 388.070251 7.817139 390.726349 6.057861 C 393.286774 4.361938 396.983276 2.550171 398.940826 2.03186 C 401.145813 1.447876 619.180908 1.032593 972 0.940186 C 1541.5 0.791016 1541.5 0.791016 1547.147095 2.928833 C 1550.253052 4.104614 1554.884277 6.906494 1557.438843 9.155151 C 1559.99353 11.403809 1563.016968 15.07312 1564.157715 17.309082 C 1565.298462 19.545166 1566.931885 24.777832 1567.787476 28.937256 C 1569.177246 35.692993 1569.366455 77.886841 1569.561279 424.359619 C 1569.731689 727.331604 1570.046509 812.718323 1570.999512 814.499207 C 1571.670654 815.753113 1573.407837 817.391296 1574.859863 818.139526 C 1576.948608 819.215881 1586.481079 819.538269 1620.5 819.683228 C 1654.926392 819.829956 1665.578491 820.196045 1673.924683 821.519165 C 1679.658203 822.428162 1688.059082 824.433716 1692.593384 825.975952 C 1697.127808 827.518188 1703.760864 830.332275 1707.333862 832.229492 C 1710.906738 834.126709 1717.527832 838.338684 1722.047485 841.589478 C 1726.567017 844.840271 1733.057983 850.514099 1736.47168 854.197998 C 1739.885376 857.881958 1745.029907 864.297668 1747.904053 868.455261 C 1750.778198 872.612854 1755.325562 880.623718 1758.009277 886.257263 C 1760.692993 891.890747 1764.240845 901.333557 1765.893311 907.241272 C 1767.545654 913.148987 1769.402588 922.570374 1770.019531 928.177673 C 1770.636597 933.784973 1771.793945 939.634644 1772.591553 941.176941 C 1773.389038 942.719238 1775.112915 944.683167 1776.422363 945.541138 C 1777.741089 946.40509 1782.973755 947.544556 1788.151611 948.095154 C 1793.293213 948.641907 1804.025024 948.812256 1812 948.473694 C 1819.974976 948.135071 1827.715576 947.394531 1829.201294 946.827942 C 1830.68689 946.261292 1832.711914 944.605774 1833.701294 943.148865 C 1835.314087 940.773804 1835.520508 937.606018 1835.698608 912.5 C 1835.812622 896.431885 1836.539795 878.10791 1837.405151 869.5 C 1838.234497 861.25 1839.68689 852.25 1840.632446 849.5 C 1841.809937 846.075684 1844.108398 842.752808 1847.925903 838.955811 C 1850.991699 835.906494 1855.75 832.361389 1858.5 831.077759 C 1861.25 829.794189 1866.199951 828.289917 1869.5 827.734863 C 1872.835693 827.173889 1883.715088 826.933472 1894 827.193481 C 1910.088135 827.60022 1913.249146 827.953186 1918.246704 829.901184 C 1921.620605 831.216309 1926.255615 834.208862 1929.472534 837.148926 C 1932.955322 840.33197 1936.04541 844.405334 1937.953247 848.328308 C 1939.604004 851.722717 1941.479126 857.200012 1942.120239 860.5 C 1942.947388 864.758179 1943.415161 899.014465 1943.731689 978.5 C 1944.121338 1076.344727 1943.981689 1091.723511 1942.626465 1100.180908 C 1941.773315 1105.505371 1940.060181 1112.030273 1938.81958 1114.680908 C 1937.578979 1117.331421 1934.405029 1121.665894 1931.766479 1124.312988 C 1929.12793 1126.960205 1924.948608 1130.019897 1922.479004 1131.112305 C 1920.009521 1132.204712 1914.576904 1133.751343 1910.406494 1134.549316 C 1906.127441 1135.36792 1897.089844 1135.992432 1889.661987 1135.982666 C 1881.954102 1135.972412 1873.599365 1135.353516 1869.5 1134.489014 C 1865.650024 1133.677246 1859.711182 1131.643433 1856.302612 1129.969727 C 1852.603027 1128.153076 1848.471313 1125.07019 1846.051147 1122.320801 C 1843.223389 1119.108154 1841.179077 1115.262451 1839.293091 1109.607422 C 1836.589111 1101.5 1836.589111 1101.5 1836.044556 1059.821045 C 1835.517944 1019.514954 1835.43103 1018.049316 1833.404541 1015.321106 C 1832.251953 1013.769531 1829.552002 1011.900269 1827.404541 1011.167358 C 1824.861694 1010.299438 1815.763428 1009.637329 1801.315552 1009.26886 C 1784.15979 1008.831299 1778.408325 1009.002441 1775.942505 1010.023804 C 1773.937256 1010.854431 1772.24292 1012.567566 1771.376953 1014.640137 C 1770.273682 1017.28064 1770 1027.309326 1770 1065.0896 C 1770 1101.995361 1770.328003 1114.44458 1771.509399 1122.371582 C 1772.3396 1127.942261 1774.318481 1137.449951 1775.90686 1143.5 C 1777.495239 1149.550049 1781.969971 1165.525024 1785.850708 1179 C 1789.731445 1192.474976 1796.083984 1214.974976 1799.967529 1229 C 1803.851074 1243.025024 1810.197144 1266.650024 1814.070068 1281.5 C 1817.942993 1296.349976 1823.845459 1318.400024 1827.186768 1330.5 C 1830.527954 1342.599976 1835.850952 1362.625 1839.015625 1375 C 1842.180298 1387.375 1847.544312 1408.074951 1850.935669 1421 C 1854.327026 1433.925049 1859.577637 1453.724976 1862.603638 1465 C 1865.629761 1476.275024 1869.675659 1492.699951 1871.594604 1501.5 C 1873.51355 1510.300049 1875.964722 1522.900024 1877.041626 1529.5 C 1878.186768 1536.518188 1878.999634 1546.336792 1878.999756 1553.150635 C 1878.999878 1560.155029 1878.222412 1569.327393 1877.050171 1576.150635 C 1875.977783 1582.392822 1873.93335 1591.099976 1872.50708 1595.5 C 1871.080811 1599.900024 1867.728638 1608 1865.057983 1613.5 C 1862.387329 1619 1857.477783 1627.308716 1854.148071 1631.963867 C 1850.818359 1636.619019 1844.360352 1644.204468 1839.796997 1648.820557 C 1835.233643 1653.436646 1828.349976 1659.453491 1824.5 1662.191284 C 1820.650024 1664.929199 1814.461182 1668.951782 1810.747192 1671.130371 C 1807.033081 1673.30896 1800.908447 1676.404663 1797.136719 1678.009644 C 1793.365112 1679.614746 1786.358398 1682.064087 1781.566406 1683.452759 C 1776.774414 1684.841431 1767.549072 1686.882568 1761.065796 1687.98877 C 1749.321655 1689.992554 1746.385986 1689.999634 970.888916 1689.898193 Z M 987.5 1630.570435 C 1751.5 1630.5 1751.5 1630.5 1760.499146 1627.682129 C 1765.448608 1626.132324 1772.198608 1623.554321 1775.499146 1621.953125 C 1778.799561 1620.351929 1784.507568 1616.806763 1788.183594 1614.074829 C 1791.859497 1611.343018 1797.406006 1606.046021 1800.509155 1602.303955 C 1803.612183 1598.561768 1808.355469 1591.026855 1811.049683 1585.559814 C 1813.743896 1580.092651 1816.718018 1572.217773 1817.658813 1568.059814 C 1818.616821 1563.826538 1819.328857 1556.759766 1819.2771 1552 C 1819.226196 1547.324951 1818.2677 1539.449951 1817.146851 1534.5 C 1816.026123 1529.550049 1812.218384 1514.25 1808.685181 1500.5 C 1805.151855 1486.75 1799.035645 1463.349976 1795.093384 1448.5 C 1791.151245 1433.650024 1785.193237 1410.474976 1781.853516 1397 C 1778.513672 1383.525024 1772.918091 1361.809082 1769.418701 1348.742432 C 1765.919434 1335.675781 1761.494751 1318.906006 1759.586182 1311.476318 C 1757.677612 1304.046753 1754.459595 1291.562744 1752.434937 1283.734009 C 1750.410278 1275.905273 1747.226318 1263.764648 1745.359375 1256.754883 C 1743.492554 1249.744995 1740.360474 1238.045044 1738.399292 1230.754883 C 1736.43811 1223.464722 1733.255737 1212.099976 1731.327271 1205.5 C 1729.398804 1198.900024 1725.994019 1187.425049 1723.760986 1180 C 1721.527954 1172.574951 1717.768433 1162.070068 1715.406494 1156.65564 C 1713.044434 1151.241211 1709.217896 1143.904175 1706.902954 1140.351074 C 1704.588013 1136.797974 1699.950317 1131.400635 1696.597046 1128.357178 C 1692.86499 1124.969971 1686.981201 1121.107422 1681.428589 1118.399414 C 1676.439331 1115.966309 1667.889404 1112.74353 1662.428589 1111.237915 C 1652.5 1108.500366 1652.5 1108.500366 1479 1108.154541 C 1363.038574 1107.92334 1302.570801 1108.153564 1296.66748 1108.848633 C 1290.70874 1109.550293 1285.812622 1110.835083 1281.619019 1112.797607 C 1276.779785 1115.062012 1273.724854 1117.566162 1267.82666 1124.103271 C 1263.659668 1128.721436 1256.642944 1136.550049 1252.233887 1141.5 C 1247.824829 1146.449951 1237.30603 1157.366699 1228.858643 1165.759277 C 1220.411377 1174.151978 1209.836304 1184.052002 1205.358398 1187.759277 C 1200.880493 1191.466675 1192.453491 1197.875 1186.631836 1202 C 1180.810059 1206.125 1170.973755 1212.560059 1164.773438 1216.299927 C 1158.572998 1220.039917 1146.75 1226.440918 1138.5 1230.52417 C 1130.25 1234.607544 1117.223633 1240.456055 1109.552612 1243.520996 C 1101.88147 1246.585938 1089.50647 1250.858032 1082.052612 1253.014771 C 1074.598633 1255.171387 1063.249634 1258.06897 1056.832397 1259.453857 C 1050.415161 1260.838623 1041.190186 1262.648438 1036.332397 1263.475464 C 1031.474609 1264.30249 1020.974976 1265.657959 1013 1266.487549 C 1003.80719 1267.443848 988.617615 1267.989624 971.5 1267.978516 C 955.021423 1267.967773 939.628967 1267.413208 932 1266.555298 C 925.125 1265.782227 915.450012 1264.439697 910.5 1263.572021 C 905.549988 1262.704346 896.619019 1260.884399 890.653381 1259.52771 C 884.687683 1258.171021 874.866272 1255.661621 868.827881 1253.951294 C 862.789551 1252.240845 853.045532 1249.038086 847.174561 1246.833984 C 841.303528 1244.629761 832.224976 1241.010376 827 1238.790771 C 821.775024 1236.571289 813.158081 1232.579102 807.851379 1229.919312 C 802.544617 1227.259644 794.219604 1222.739746 789.351379 1219.875122 C 784.483093 1217.010498 775.775024 1211.513184 770 1207.658691 C 764.224976 1203.804199 755.450012 1197.626465 750.5 1193.930298 C 745.549988 1190.234131 736.549988 1182.93396 730.5 1177.707764 C 724.450012 1172.481445 713.640137 1162.196533 706.478027 1154.852661 C 699.315979 1147.508667 688.499268 1135.875 682.440857 1129 C 675.171631 1120.750977 669.588501 1115.398071 666.023438 1113.259766 C 663.052185 1111.477661 659.018921 1109.677734 657.060608 1109.259766 C 655.102295 1108.841919 570.025024 1108.5 468 1108.5 C 295.103271 1108.5 282.024414 1108.618164 275.5 1110.239624 C 271.649994 1111.196533 264.225006 1114.081299 259 1116.650269 C 252.110596 1120.037598 247.977386 1122.874146 243.959213 1126.97229 C 240.055527 1130.953613 236.748642 1135.906982 232.767059 1143.736572 C 229.658798 1149.848877 225.551147 1159.946045 223.638931 1166.174927 C 221.72673 1172.403687 217.668396 1186.724976 214.620438 1198 C 211.572479 1209.275024 206.340439 1229.074951 202.993698 1242 C 199.646942 1254.925049 194.693665 1274.5 191.986389 1285.5 C 189.279129 1296.5 183.699692 1317.994141 179.587646 1333.264771 C 175.475586 1348.5354 168.947983 1372.835327 165.081833 1387.264771 C 161.215698 1401.694092 154.664261 1426.550049 150.523087 1442.5 C 146.381912 1458.449951 139.318268 1485.675049 134.826096 1503 C 126.658508 1534.5 126.658508 1534.5 126.579254 1549.5 C 126.535522 1557.776001 127.050354 1567.189575 127.727737 1570.5 C 128.402985 1573.800049 131.030106 1580.702881 133.565765 1585.8396 C 136.966263 1592.728516 140.05545 1597.160889 145.338028 1602.730835 C 149.277115 1606.884155 155.563965 1612.437866 159.308807 1615.072266 C 163.053665 1617.706787 169.353668 1621.20813 173.308807 1622.852905 C 177.263962 1624.497681 184.324997 1626.619873 189 1627.56897 C 193.675003 1628.517944 203.350006 1629.597412 210.5 1629.967651 C 217.649994 1630.337891 567.299988 1630.609253 987.5 1630.570435 Z M 972.291626 1494.887329 C 948.189697 1494.817383 928.387756 1494.268555 920 1493.438354 C 912.575012 1492.703369 900.098083 1491.384399 892.273499 1490.507324 C 884.448975 1489.630249 869.373962 1487.325439 858.773499 1485.385376 C 848.173096 1483.445313 832.982483 1480.300537 825.016541 1478.396973 C 817.050659 1476.493408 803.100708 1472.64917 794.016541 1469.854126 C 784.932434 1467.059082 770.156982 1462.121704 761.18219 1458.882202 C 752.207336 1455.642578 738.932373 1450.566406 731.68219 1447.601807 C 724.431946 1444.637207 711.974976 1439.17627 704 1435.466553 C 696.025024 1431.756836 683.200012 1425.334229 675.5 1421.194092 C 667.799988 1417.054077 653.849976 1408.935547 644.5 1403.152832 C 635.150024 1397.370239 621.650024 1388.737061 614.5 1383.968018 C 607.349976 1379.198975 595.139038 1370.545654 587.364563 1364.738525 C 579.590027 1358.931396 568.790039 1350.456665 563.364563 1345.905762 C 557.939026 1341.35498 547.167603 1331.893188 539.427979 1324.879517 C 531.688354 1317.865845 520.213318 1306.788086 513.927979 1300.262451 C 506.275269 1292.317017 501.508942 1286.432129 499.5 1282.44873 C 496.909393 1277.311768 496.5 1275.403931 496.5 1268.467529 C 496.5 1262.785156 497.043518 1259.229858 498.357849 1256.315186 C 499.379669 1254.049316 501.875397 1250.574585 503.903931 1248.59375 C 505.932495 1246.613037 509.354126 1244.093994 511.507568 1242.996094 C 514.410461 1241.516113 517.4021 1241 523.077087 1241 C 529.805176 1241 531.566162 1241.417725 537.631348 1244.451904 C 541.90033 1246.587646 548.338501 1251.318604 554.515686 1256.858887 C 560.00708 1261.78418 569 1269.932861 574.5 1274.967041 C 580 1280.001221 588.775024 1287.558594 594 1291.76123 C 599.224976 1295.963867 607.775024 1302.955566 613 1307.298584 C 618.224976 1311.641357 628.575012 1319.555908 636 1324.886353 C 643.424988 1330.216797 654.900024 1337.990234 661.5 1342.160889 C 668.099976 1346.331543 679.511047 1353.19751 686.85791 1357.418823 C 694.204712 1361.640137 706.015991 1368.000244 713.105103 1371.552734 C 720.194214 1375.10498 733.08313 1381.192505 741.747192 1385.080322 C 750.411255 1388.968262 763.575012 1394.542969 771 1397.468506 C 778.424988 1400.394165 791.338867 1405.071533 799.69751 1407.862549 C 808.056091 1410.653687 821.556091 1414.739258 829.69751 1416.94165 C 837.838867 1419.144043 851.924988 1422.568359 861 1424.55127 C 870.075012 1426.534302 887.400024 1429.472656 899.5 1431.080933 C 911.599976 1432.689331 925.325012 1434.244629 930 1434.537109 C 934.674988 1434.829712 945.924988 1435.518921 955 1436.068726 C 966.308838 1436.753906 977.320374 1436.733154 990 1436.002686 C 1000.174988 1435.416504 1015.699951 1434.238647 1024.5 1433.385254 C 1033.300049 1432.531738 1047.025024 1430.94165 1055 1429.851685 C 1062.974976 1428.761597 1076.925049 1426.31665 1086 1424.418335 C 1095.074951 1422.52002 1108.246094 1419.364868 1115.269165 1417.406982 C 1122.292358 1415.449219 1133.767334 1411.919434 1140.769165 1409.56311 C 1147.771118 1407.206787 1160.025024 1402.90918 1168 1400.012695 C 1175.974976 1397.116211 1190.150024 1391.387085 1199.5 1387.281372 C 1208.849976 1383.175537 1222.37561 1376.733521 1229.557007 1372.965698 C 1236.738281 1369.197876 1247.988281 1363.024048 1254.557007 1359.246094 C 1261.12561 1355.46814 1272.573364 1348.579712 1279.996216 1343.938477 C 1287.419189 1339.297363 1300.244141 1330.762329 1308.496216 1324.971802 C 1316.748291 1319.181274 1331.145142 1308.15625 1340.489258 1300.471802 C 1349.833374 1292.787354 1362.208374 1282.017334 1367.989258 1276.53833 C 1373.770142 1271.059448 1383.480713 1261.734619 1389.568115 1255.816284 C 1397.589233 1248.018188 1402.243164 1244.32019 1406.473022 1242.383789 C 1410.403931 1240.584106 1414.141113 1239.677002 1417.918823 1239.605835 C 1421.003784 1239.547607 1426.023438 1240.283447 1429.073486 1241.241089 C 1432.123657 1242.19873 1436.522827 1244.611572 1438.849609 1246.603271 C 1441.17627 1248.594849 1444.16333 1252.362061 1445.487305 1254.975098 C 1446.811401 1257.587891 1448.175415 1261.925049 1448.518433 1264.612915 C 1448.972778 1268.172363 1448.57666 1271.307861 1447.060425 1276.154541 C 1445.835449 1280.07019 1443.176514 1285.214844 1440.599976 1288.654541 C 1438.19165 1291.869507 1429.533936 1301.089844 1421.360596 1309.144165 C 1413.187256 1317.198486 1400.871582 1328.448486 1393.992432 1334.144165 C 1387.113159 1339.839844 1375.863159 1349.025635 1368.992432 1354.557007 C 1362.121582 1360.088257 1350.875 1368.668945 1344 1373.625122 C 1337.125 1378.581177 1326.324951 1386.029053 1320 1390.175659 C 1313.675049 1394.322388 1301.300049 1402.012207 1292.5 1407.26416 C 1283.699951 1412.516113 1269.75 1420.33667 1261.5 1424.643066 C 1253.25 1428.949341 1241.087646 1435.026001 1234.472656 1438.146484 C 1227.857544 1441.26709 1215.257568 1446.725586 1206.472656 1450.276367 C 1197.687744 1453.827148 1184.639282 1458.770508 1177.476196 1461.261353 C 1170.31311 1463.752319 1157.263062 1467.895752 1148.476196 1470.468872 C 1139.689331 1473.042114 1124.849976 1476.95752 1115.5 1479.1698 C 1106.150024 1481.38208 1089.949951 1484.683105 1079.5 1486.505493 C 1069.050049 1488.327881 1055.099976 1490.348633 1048.5 1490.996094 C 1041.900024 1491.643433 1030.78125 1492.809204 1023.791626 1493.586548 C 1014.798279 1494.586792 999.743103 1494.967041 972.291626 1494.887329 Z M 977 1208.543701 C 1003.151062 1208.290894 1013.919983 1207.80896 1021.5 1206.552002 C 1027 1205.640015 1038.25 1203.322021 1046.5 1201.401001 C 1054.75 1199.47998 1066.760498 1196.15332 1073.190063 1194.008423 C 1079.619629 1191.863647 1090.419556 1187.549561 1097.190063 1184.421875 C 1103.960571 1181.293945 1115.121094 1175.593262 1121.991333 1171.753418 C 1128.861572 1167.913574 1138.986572 1161.69165 1144.491333 1157.926758 C 1149.996094 1154.161743 1159.41687 1147.148438 1165.426392 1142.341553 C 1171.436035 1137.534668 1182.184937 1127.953857 1189.312866 1121.050903 C 1196.440796 1114.147949 1206.748291 1103.099976 1212.218262 1096.5 C 1217.688354 1089.900024 1225.504761 1080.818115 1229.588257 1076.318115 C 1233.671631 1071.818115 1240.328247 1065.918579 1244.380737 1063.20813 C 1248.433228 1060.497681 1255.713135 1056.845581 1260.558228 1055.092407 C 1267.554565 1052.560791 1272.468506 1051.606445 1284.433838 1050.455322 C 1296.922485 1049.253906 1328.790771 1049.005371 1470.710815 1049.00293 C 1579.729248 1049.001099 1645.65918 1049.370605 1652.210815 1050.02002 C 1657.869873 1050.581055 1666.324951 1051.694458 1671 1052.494141 C 1675.675049 1053.293945 1682.875 1055.108398 1687 1056.526489 C 1691.125 1057.944458 1696.526489 1059.355591 1699.003296 1059.662354 C 1702.586182 1060.106201 1704.016846 1059.807129 1706.003296 1058.199341 C 1708.5 1056.178467 1708.5 1056.178467 1708.861328 1016.839294 C 1709.060181 995.202698 1708.765015 965.349976 1708.205566 950.5 C 1707.32019 926.998962 1706.906372 922.693604 1705.011597 917.277222 C 1703.814331 913.854675 1701.151001 908.454712 1699.093018 905.277222 C 1697.035156 902.099731 1692.774048 897.149414 1689.624023 894.276428 C 1686.473999 891.403442 1680.991943 887.666565 1677.441895 885.97229 C 1673.891846 884.277954 1668.421631 882.353577 1665.285889 881.695862 C 1660.894409 880.774719 1501.515259 880.5 971.534058 880.5 C 401.755402 880.5 282.367554 880.729431 276.99173 881.834534 C 273.421265 882.568542 267.350006 884.808533 263.5 886.812317 C 259.649994 888.816101 254.22171 892.715576 251.437103 895.477783 C 248.652496 898.23999 245.08786 902.696167 243.51564 905.380432 C 241.943436 908.064636 239.618347 913.122559 238.348785 916.620117 C 236.97197 920.413208 235.598129 927.523376 234.94429 934.239685 C 234.20459 941.838013 234.066238 962.085815 234.518845 996.5 C 234.887756 1024.550049 235.614609 1049.188721 236.134064 1051.252686 C 236.69014 1053.462158 238.125595 1055.691406 239.624771 1056.673706 C 242.047913 1058.261475 242.783218 1058.189453 254.83551 1055.183594 C 261.800964 1053.446289 273.350006 1051.348389 280.5 1050.521484 C 291.622711 1049.235229 320.142944 1049.021362 478 1049.040527 C 653.359863 1049.061768 663.03241 1049.155029 673.247009 1050.924561 C 681.406738 1052.338135 686.036865 1053.79834 692.479919 1056.98999 C 698.035339 1059.742065 703.410034 1063.456787 708.043762 1067.746826 C 711.936646 1071.351074 720.133545 1080.419922 726.259094 1087.899902 C 732.384644 1095.380005 741.371948 1105.849854 746.230896 1111.166138 C 751.089844 1116.482544 759.459595 1124.687988 764.830383 1129.400635 C 770.201172 1134.113159 779.729553 1141.829102 786.004639 1146.547363 C 792.279724 1151.265381 803.17688 1158.696777 810.220581 1163.061279 C 817.264221 1167.425903 827.905457 1173.443481 833.867737 1176.433594 C 839.830017 1179.423828 850.061401 1184.103638 856.604126 1186.83313 C 863.146851 1189.562622 873.450012 1193.408447 879.5 1195.37915 C 885.549988 1197.350098 897.25 1200.520752 905.5 1202.425049 C 913.75 1204.32959 925.450012 1206.560303 931.5 1207.382324 C 939.971619 1208.533447 950.429871 1208.800415 977 1208.543701 Z"/>
</svg>
